<?xml version="1.0" encoding="UTF-8"?>
<svg width="21px" height="32px" viewBox="0 0 21 32" version="1.1" xmlns="http://www.w3.org/2000/svg" xmlns:xlink="http://www.w3.org/1999/xlink">
    <title>icon-boissons</title>
    <g id="Page-1" stroke="none" stroke-width="1" fill="none" fill-rule="evenodd">
        <g id="icon-boissons" transform="translate(0.500000, 0.000000)" fill="#3F4870" fill-rule="nonzero">
            <path d="M19.55,5.842 L16.872,1.744 C17.147,1.581 17.332,1.281 17.332,0.938 C17.332,0.42 16.912,-1.0658141e-14 16.394,-1.0658141e-14 L3.606,-1.0658141e-14 C3.088,-1.0658141e-14 2.668,0.42 2.668,0.938 C2.668,1.281 2.853,1.58 3.128,1.744 L0.45,5.842 C0.35,5.994 0.297,6.173 0.297,6.355 L0.297,26.684 C0.297,27.984 1.183,29.08 2.383,29.401 L3.31,31.046 C3.642,31.635 4.268,32.001 4.944,32.001 L15.056,32.001 C15.732,32.001 16.358,31.635 16.69,31.046 L17.617,29.401 C18.817,29.08 19.703,27.983 19.703,26.684 L19.703,6.355 C19.703,6.173 19.65,5.995 19.55,5.842 Z M5.282,1.875 L14.717,1.875 L16.883,5.189 L3.117,5.189 L5.282,1.875 Z M15.056,30.125 L4.944,30.125 L4.59,29.496 L15.411,29.496 L15.057,30.125 L15.056,30.125 Z M17.827,26.683 L17.827,26.683 C17.827,27.2 17.406,27.621 16.889,27.621 L3.11,27.621 C2.593,27.621 2.172,27.2 2.172,26.683 L2.172,7.063 L17.827,7.063 L17.827,26.683 Z" id="Shape"></path>
            <path d="M10,10.69 C6.277,10.69 3.249,13.719 3.249,17.441 C3.249,21.163 6.278,24.192 10,24.192 C13.722,24.192 16.751,21.163 16.751,17.441 C16.751,13.719 13.722,10.69 10,10.69 Z M10,22.318 C7.311,22.318 5.124,20.13 5.124,17.442 C5.124,14.754 7.312,12.566 10,12.566 C12.688,12.566 14.876,14.754 14.876,17.442 C14.876,20.13 12.688,22.318 10,22.318 Z" id="Shape"></path>
        </g>
    </g>
</svg>