<?xml version="1.0" encoding="UTF-8"?>
<svg width="32px" height="30px" viewBox="0 0 32 30" version="1.1" xmlns="http://www.w3.org/2000/svg" xmlns:xlink="http://www.w3.org/1999/xlink">
    <title>burger</title>
    <g id="Page-1" stroke="none" stroke-width="1" fill="none" fill-rule="evenodd">
        <g id="burger" fill="#3F4870" fill-rule="nonzero">
            <path d="M2.339,13.409 L29.473,13.409 C29.754,13.409 30.034,13.315 30.222,13.035 C30.409,12.848 30.503,12.567 30.409,12.286 C29.286,5.362 23.111,0.029 15.906,0.029 C8.701,0.029 2.526,5.362 1.403,12.38 C1.403,12.661 1.403,12.941 1.59,13.129 C1.777,13.317 2.058,13.41 2.339,13.41 L2.339,13.409 Z M15.906,1.901 C21.801,1.901 26.947,6.018 28.35,11.538 L3.461,11.538 C4.865,6.018 10.011,1.901 15.905,1.901 L15.906,1.901 Z" id="Shape"></path>
            <path d="M3.275,16.684 C3.93,17.152 4.772,17.339 5.521,17.339 C6.27,17.339 7.112,17.152 7.767,16.684 C8.516,16.216 9.451,16.216 10.2,16.684 C11.51,17.62 13.381,17.62 14.691,16.684 C15.44,16.216 16.375,16.216 17.124,16.684 C18.434,17.62 20.305,17.62 21.615,16.684 C22.364,16.216 23.299,16.216 24.048,16.684 C25.358,17.62 27.229,17.62 28.539,16.684 L30.223,15.561 C30.691,15.28 30.784,14.719 30.504,14.251 C30.224,13.783 29.662,13.69 29.194,13.97 L27.51,15.093 C26.761,15.561 25.826,15.561 25.077,15.093 C23.767,14.157 21.896,14.157 20.586,15.093 C19.837,15.561 18.902,15.561 18.153,15.093 C16.843,14.157 14.972,14.157 13.662,15.093 C12.913,15.561 11.978,15.561 11.229,15.093 C9.919,14.157 8.048,14.157 6.738,15.093 C5.989,15.561 5.054,15.561 4.305,15.093 L2.621,13.97 C2.153,13.689 1.592,13.783 1.311,14.251 C1.03,14.719 1.124,15.28 1.592,15.561 L3.276,16.684 L3.275,16.684 Z" id="Path"></path>
            <path d="M31.813,21.737 C31.813,19.959 30.316,18.462 28.538,18.462 L3.275,18.462 C1.497,18.462 5.15143483e-14,19.959 5.15143483e-14,21.737 C5.15143483e-14,23.234 0.936,24.45 2.339,24.825 L2.339,25.667 C2.339,27.819 4.117,29.597 6.269,29.597 L25.637,29.597 C27.883,29.597 29.567,27.913 29.567,25.667 L29.567,24.825 C30.877,24.357 31.813,23.141 31.813,21.737 Z M25.544,27.632 L6.269,27.632 C5.146,27.632 4.211,26.696 4.211,25.574 L4.211,24.919 L27.696,24.919 L27.696,25.574 C27.602,26.79 26.76,27.632 25.544,27.632 Z M28.538,23.047 L3.275,23.047 C2.526,23.047 1.872,22.486 1.872,21.737 C1.872,20.988 2.527,20.333 3.275,20.333 L28.632,20.333 C29.381,20.333 30.036,20.988 30.036,21.737 C30.036,22.486 29.287,23.047 28.539,23.047 L28.538,23.047 Z" id="Shape"></path>
            <path d="M10.105,5.83 C9.544,5.83 9.169,6.204 9.169,6.766 L9.169,9.105 C9.169,9.666 9.543,10.041 10.105,10.041 C10.667,10.041 11.041,9.667 11.041,9.105 L11.041,6.766 C11.041,6.205 10.667,5.83 10.105,5.83 Z" id="Path"></path>
            <path d="M21.708,5.83 C21.147,5.83 20.772,6.204 20.772,6.766 L20.772,9.105 C20.772,9.666 21.146,10.041 21.708,10.041 C22.27,10.041 22.644,9.667 22.644,9.105 L22.644,6.766 C22.644,6.205 22.176,5.83 21.708,5.83 Z" id="Path"></path>
            <path d="M15.906,4.614 C15.345,4.614 14.97,4.988 14.97,5.55 L14.97,7.889 C14.97,8.45 15.344,8.825 15.906,8.825 C16.468,8.825 16.842,8.451 16.842,7.889 L16.842,5.55 C16.842,5.082 16.468,4.614 15.906,4.614 L15.906,4.614 Z" id="Path"></path>
        </g>
    </g>
</svg>