<?xml version="1.0" encoding="UTF-8"?>
<svg width="33px" height="28px" viewBox="0 0 33 28" version="1.1" xmlns="http://www.w3.org/2000/svg" xmlns:xlink="http://www.w3.org/1999/xlink">
    <title>pizza</title>
    <g id="Page-1" stroke="none" stroke-width="1" fill="none" fill-rule="evenodd">
        <g id="pizza" fill="#3F4870" fill-rule="nonzero">
            <path d="M17.941,11.013 C16.222,11.013 14.831,12.322 14.831,13.959 C14.831,15.596 16.222,16.905 17.941,16.905 C19.66,16.905 21.051,15.596 21.051,13.959 C21.051,12.322 19.66,11.013 17.941,11.013 L17.941,11.013 Z M17.941,15.35 C17.123,15.35 16.468,14.777 16.468,14.041 C16.468,13.305 17.123,12.732 17.941,12.732 C18.759,12.732 19.414,13.305 19.414,14.041 C19.414,14.777 18.759,15.35 17.941,15.35 Z" id="Shape"></path>
            <path d="M10.985,14.205 C10.494,14.205 10.167,14.532 10.167,15.023 L10.167,16.087 C10.167,16.578 10.494,16.905 10.985,16.905 C11.476,16.905 11.803,16.578 11.803,16.087 L11.803,15.023 C11.803,14.614 11.476,14.205 10.985,14.205 Z" id="Path"></path>
            <path d="M32.509,18.624 L32.509,18.624 C32.263,11.586 28.499,4.956 22.442,0.864 L21.787,0.291 C21.623,0.209 21.46,0.127 21.214,0.127 C18.35,0.127 16.058,2.173 15.894,4.956 L1.163,18.787 C1.163,18.787 1.163,18.787 1.163,18.869 C1.081,18.951 1.081,18.951 0.999,19.033 L0.999,19.115 C0.999,19.197 0.999,19.279 0.917,19.361 C0.917,19.361 0.917,19.361 0.917,19.443 L0.917,22.717 C0.917,23.208 1.244,23.535 1.735,23.535 L10.328,23.535 C11.474,23.535 12.374,24.353 12.374,25.417 C12.374,26.726 13.52,27.872 14.911,27.872 C16.302,27.872 17.448,26.726 17.448,25.417 C17.448,24.353 18.348,23.535 19.494,23.535 L28.087,23.535 C29.396,23.535 30.624,22.962 31.442,21.98 C32.424,20.998 32.67,19.852 32.506,18.625 L32.509,18.624 Z M20.969,1.765 L21.46,2.174 C26.37,5.448 29.562,10.522 30.544,16.005 C30.053,15.678 29.562,15.514 28.989,15.35 C28.989,15.35 28.989,15.35 28.907,15.35 C27.598,15.186 26.288,15.514 25.388,16.332 C25.388,16.332 25.388,16.332 25.306,16.414 C24.488,11.913 21.787,7.821 17.777,5.12 L17.531,4.956 C17.777,3.156 19.086,1.928 20.968,1.764 L20.969,1.765 Z M16.795,6.348 L16.795,6.348 C21.051,9.212 23.67,13.714 23.915,18.542 L3.864,18.542 L16.795,6.348 Z M28.253,21.816 L19.66,21.816 C17.614,21.816 15.977,23.371 15.977,25.335 C15.977,25.744 15.568,26.153 15.077,26.153 C14.586,26.153 14.177,25.744 14.177,25.335 C14.177,23.371 12.54,21.816 10.494,21.816 L2.637,21.816 L2.637,20.179 L24.816,20.179 C25.307,20.179 25.634,19.852 25.634,19.361 C25.634,18.624 25.961,17.97 26.452,17.561 C27.025,17.07 27.843,16.824 28.662,16.988 C29.808,17.234 30.544,17.97 30.872,18.952 C30.872,19.116 30.872,19.279 30.872,19.443 C30.872,19.525 30.872,19.525 30.872,19.607 C30.872,20.098 30.626,20.507 30.299,20.916 C29.89,21.489 29.071,21.816 28.253,21.816 Z" id="Shape"></path>
        </g>
    </g>
</svg>