<?xml version="1.0" encoding="UTF-8"?>
<svg width="345px" height="512px" viewBox="0 0 345 512" version="1.1" xmlns="http://www.w3.org/2000/svg" xmlns:xlink="http://www.w3.org/1999/xlink">
    <title>kebab</title>
    <g id="HOSTING" stroke="none" stroke-width="1" fill="none" fill-rule="evenodd">
        <g id="kebab" fill="#3F4970" fill-rule="nonzero">
            <path d="M324.898438,81.457031 C310.460938,65.371094 289.78125,56.144531 268.164062,56.144531 L187.441406,56.144531 L187.441406,14.992188 C187.441406,6.710938 180.730469,0 172.453125,0 C164.171875,0 157.460938,6.710938 157.460938,14.992188 L157.460938,56.144531 L76.738281,56.144531 C55.121094,56.144531 34.445312,65.371094 20.003906,81.457031 C5.566406,97.542969 -1.382812,119.089844 0.941406,140.582031 L29.699219,406.539062 C32.738281,434.652344 56.355469,455.855469 84.632812,455.855469 L157.457031,455.855469 L157.457031,497.007812 C157.457031,505.289062 164.171875,512 172.449219,512 C180.730469,512 187.441406,505.289062 187.441406,497.007812 L187.441406,455.855469 L260.269531,455.855469 C288.546875,455.855469 312.164062,434.652344 315.203125,406.539062 L343.960938,140.582031 C346.285156,119.089844 339.339844,97.542969 324.898438,81.457031 Z M260.269531,425.871094 L84.632812,425.871094 C71.699219,425.871094 60.898438,416.175781 59.507812,403.316406 L57.277344,382.675781 L167.367188,382.675781 C175.644531,382.675781 182.355469,375.964844 182.355469,367.6875 C182.355469,359.40625 175.644531,352.695312 167.367188,352.695312 L54.035156,352.695312 L46.457031,282.585938 L116.40625,282.585938 C124.6875,282.585938 131.398438,275.875 131.398438,267.597656 C131.398438,259.316406 124.6875,252.605469 116.40625,252.605469 L43.214844,252.605469 L35.316406,179.558594 L143.34375,179.558594 C151.625,179.558594 158.335938,172.84375 158.335938,164.566406 C158.335938,156.285156 151.625,149.574219 143.34375,149.574219 L32.070312,149.574219 L30.75,137.355469 C29.320312,124.128906 33.429688,111.386719 42.316406,101.484375 C51.207031,91.582031 63.429688,86.128906 76.738281,86.128906 L268.164062,86.128906 C281.472656,86.128906 293.695312,91.582031 302.585938,101.484375 C311.472656,111.386719 315.582031,124.128906 314.152344,137.355469 L307.007812,203.4375 L228.191406,203.4375 C219.910156,203.4375 213.199219,210.152344 213.199219,218.429688 C213.199219,226.710938 219.910156,233.421875 228.191406,233.421875 L303.765625,233.421875 L296.957031,296.386719 L245.179688,296.386719 C236.902344,296.386719 230.1875,303.097656 230.1875,311.378906 C230.1875,319.660156 236.902344,326.371094 245.179688,326.371094 L293.714844,326.371094 L285.394531,403.316406 C284.003906,416.175781 273.203125,425.871094 260.269531,425.871094 Z" id="Shape"></path>
        </g>
    </g>
</svg>