<?xml version="1.0" encoding="UTF-8"?>
<svg width="32px" height="32px" viewBox="0 0 32 32" version="1.1" xmlns="http://www.w3.org/2000/svg" xmlns:xlink="http://www.w3.org/1999/xlink">
    <title>cake</title>
    <g id="Page-1" stroke="none" stroke-width="1" fill="none" fill-rule="evenodd">
        <g id="cake" fill="#3F4870" fill-rule="nonzero">
            <path d="M26.538,2.755 C26.3,2.615 26.013,2.587 25.752,2.678 C23.078,3.614 20.413,4.542 18.277,5.285 C17.604,4.546 16.698,4.023 15.676,3.832 C15.411,2.286 14.434,0.951 12.995,0.232 L12.731,0.1 C12.268,-0.132 11.705,0.056 11.473,0.519 C11.241,0.982 11.429,1.545 11.892,1.777 L12.156,1.909 C12.964,2.313 13.538,3.028 13.765,3.87 C11.784,4.323 10.279,6.034 10.136,8.114 C7.082,9.176 3.839,10.304 0.626,11.428 C0.25,11.56 -0.002,11.914 -0.002,12.313 L-0.002,12.313 L-0.002,22.313 L-0.001,22.313 C-0.001,22.701 0.24,23.064 0.627,23.198 L25.752,31.948 C25.852,31.983 25.956,32 26.06,32 C26.172,32 26.284,31.98 26.389,31.94 C26.414,31.934 26.446,31.927 26.484,31.918 C27.002,31.798 28.379,31.48 29.625,30.456 C31.2,29.162 31.998,27.263 31.998,24.812 L31.998,12.312 C31.998,12.053 31.936,5.936 26.536,2.754 L26.538,2.755 Z M14.813,5.625 C16.364,5.625 17.626,6.887 17.626,8.438 C17.626,9.989 16.364,11.251 14.813,11.251 C13.262,11.251 12,9.989 12,8.438 C12,6.887 13.262,5.625 14.813,5.625 Z M10.397,10.008 C11.044,11.822 12.779,13.125 14.813,13.125 C17.398,13.125 19.501,11.022 19.501,8.437 C19.501,7.91 19.412,7.404 19.251,6.931 C21.208,6.25 23.564,5.43 25.95,4.595 C30.077,7.3 30.126,12.261 30.126,12.312 C30.126,16.66 26.993,19.266 25.933,20.023 L20.748,18.208 C20.461,18.108 20.144,18.152 19.896,18.328 C19.648,18.504 19.501,18.789 19.501,19.093 L19.501,22.937 C19.501,23.454 19.08,23.875 18.563,23.875 C18.046,23.875 17.625,23.454 17.625,22.937 L17.625,17.781 C17.625,17.382 17.372,17.026 16.995,16.895 L3.787,12.309 C6.028,11.527 8.256,10.752 10.396,10.008 L10.397,10.008 Z M15.75,21.463 L1.875,16.645 L1.875,13.63 L15.75,18.448 L15.75,21.463 Z M1.875,18.63 L15.8,23.465 C16.048,24.764 17.192,25.749 18.562,25.749 C19.26,25.749 19.899,25.493 20.391,25.07 L25.124,26.727 L25.124,29.743 L1.874,21.646 L1.875,18.63 Z M25.125,24.741 L21.334,23.414 C21.361,23.259 21.375,23.1 21.375,22.937 L21.375,20.415 L25.125,21.728 L25.125,24.741 Z M30.125,24.813 C30.125,27.377 29.1,29.021 27,29.811 L27,21.566 C27.689,21.08 29.012,20.017 30.125,18.37 L30.125,24.813 Z" id="Shape"></path>
            <path d="M26.688,8.25 C26.688,8.768 26.268,9.188 25.75,9.188 C25.232,9.188 24.812,8.768 24.812,8.25 C24.812,7.732 25.232,7.312 25.75,7.312 C26.268,7.312 26.688,7.732 26.688,8.25 Z" id="Path"></path>
            <path d="M27.938,12.625 C27.938,13.143 27.518,13.563 27,13.563 C26.482,13.563 26.062,13.143 26.062,12.625 C26.062,12.107 26.482,11.687 27,11.687 C27.518,11.687 27.938,12.107 27.938,12.625 Z" id="Path"></path>
            <path d="M24.813,16.375 C24.813,16.893 24.393,17.313 23.875,17.313 C23.357,17.313 22.937,16.893 22.937,16.375 C22.937,15.857 23.357,15.437 23.875,15.437 C24.393,15.437 24.813,15.857 24.813,16.375 Z" id="Path"></path>
            <path d="M22.938,12 C22.938,12.518 22.518,12.938 22,12.938 C21.482,12.938 21.062,12.518 21.062,12 C21.062,11.482 21.482,11.062 22,11.062 C22.518,11.062 22.938,11.482 22.938,12 Z" id="Path"></path>
        </g>
    </g>
</svg>