<?xml version="1.0" encoding="UTF-8"?>
<svg width="37px" height="32px" viewBox="0 0 37 32" version="1.1" xmlns="http://www.w3.org/2000/svg" xmlns:xlink="http://www.w3.org/1999/xlink">
    <title>sandwicherie</title>
    <g id="Page-1" stroke="none" stroke-width="1" fill="none" fill-rule="evenodd">
        <g id="sandwicherie" fill="#3F4870" fill-rule="nonzero">
            <path d="M33.992,12.28 C34.005,12.099 34.012,11.917 34.012,11.734 C34.012,7.617 30.688,4.267 26.603,4.267 C25.009,4.267 23.53,4.768 22.315,5.62 C21.364,4.948 20.272,4.511 19.123,4.345 L19.123,1.068 C19.123,0.479 18.649,0.001 18.065,0.001 C17.481,0.001 17.007,0.478 17.007,1.068 L17.007,4.344 C15.84,4.513 14.759,4.957 13.833,5.609 C12.596,4.74 11.123,4.267 9.598,4.267 C5.474,4.267 2.118,7.616 2.118,11.734 C2.118,11.918 2.125,12.1 2.138,12.28 C0.79,13.488 0.001,15.234 0.001,17.067 C0.001,17.596 0.066,18.111 0.186,18.604 C0.063,19.147 0.001,19.706 0.001,20.267 C0.001,22.333 0.838,24.205 2.188,25.558 C2.69,29.203 5.866,32 9.598,32 L26.604,32 C30.33,32 33.444,29.22 33.944,25.558 C35.294,24.205 36.131,22.333 36.131,20.267 C36.131,19.705 36.068,19.147 35.946,18.604 C36.067,18.112 36.131,17.597 36.131,17.067 C36.131,15.234 35.342,13.488 33.994,12.28 L33.992,12.28 Z M28.72,25.6 C27.146,25.6 25.632,24.897 24.629,23.731 C24.674,23.644 24.718,23.556 24.76,23.467 L29.779,23.467 C31.252,23.467 32.609,22.959 33.688,22.108 C32.943,24.144 30.997,25.6 28.721,25.6 L28.72,25.6 Z M2.442,22.108 C3.52,22.959 4.878,23.467 6.351,23.467 L11.37,23.467 C11.412,23.556 11.456,23.644 11.501,23.731 C10.498,24.897 8.983,25.6 7.41,25.6 C5.133,25.6 3.188,24.144 2.443,22.108 L2.442,22.108 Z M13.83,23.466 L22.298,23.466 C21.315,24.783 19.757,25.6 18.064,25.6 C16.371,25.6 14.813,24.783 13.83,23.466 L13.83,23.466 Z M9.597,6.4 C10.535,6.4 11.446,6.651 12.245,7.117 C11.25,8.388 10.655,9.992 10.655,11.734 C10.655,12.323 11.129,12.801 11.713,12.801 C12.297,12.801 12.771,12.324 12.771,11.734 C12.771,8.793 15.145,6.401 18.063,6.401 C19.005,6.401 19.92,6.654 20.722,7.124 C19.72,8.394 19.122,9.996 19.122,11.735 C19.122,12.324 19.596,12.802 20.18,12.802 C20.764,12.802 21.238,12.325 21.238,11.735 C21.238,8.794 23.644,6.402 26.601,6.402 C29.519,6.402 31.893,8.795 31.893,11.735 C31.893,14.675 29.519,17.068 26.601,17.068 L9.595,17.068 C6.638,17.068 4.232,14.675 4.232,11.735 C4.232,8.795 6.638,6.402 9.595,6.402 L9.597,6.4 Z M2.774,14.791 C3.946,17.388 6.564,19.2 9.597,19.2 L26.603,19.2 C29.606,19.2 32.197,17.391 33.36,14.797 C33.779,15.47 34.013,16.255 34.013,17.067 C34.013,19.42 32.114,21.334 29.779,21.334 L6.352,21.334 C4.017,21.334 2.118,19.42 2.118,17.067 C2.118,16.253 2.353,15.465 2.775,14.791 L2.775,14.791 L2.774,14.791 Z M26.603,29.867 L9.597,29.867 C7.696,29.867 5.997,28.859 5.043,27.343 C5.786,27.596 6.582,27.734 7.41,27.734 C9.427,27.734 11.379,26.897 12.77,25.487 C14.136,26.891 16.032,27.734 18.066,27.734 C20.1,27.734 21.995,26.891 23.362,25.487 C24.753,26.897 26.704,27.734 28.722,27.734 C29.553,27.734 30.353,27.595 31.1,27.34 C30.158,28.858 28.481,29.868 26.605,29.868 L26.603,29.867 Z" id="Shape"></path>
        </g>
    </g>
</svg>